<svg xmlns="http://www.w3.org/2000/svg" width="41" height="26.5" viewBox="0 0 41 26.5"><defs><style>.a{fill:#e7e7e7;}</style></defs><g transform="translate(-728 -3718)"><path class="a" d="M4968,322.5h-4.521a57.218,57.218,0,0,1-5.522-7.334,33.253,33.253,0,0,1-2.788-5.453,19.736,19.736,0,0,1-.814-2.556,8.5,8.5,0,0,1-.35-2.421,9,9,0,0,1,18,0,8.753,8.753,0,0,1-5.82,8.175A16.82,16.82,0,0,0,4968,322.5h0Z" transform="translate(-4226 3422)"/><path class="a" d="M4968,322.5h-4.521a57.218,57.218,0,0,1-5.522-7.334,33.253,33.253,0,0,1-2.788-5.453,19.736,19.736,0,0,1-.814-2.556,8.5,8.5,0,0,1-.35-2.421,9,9,0,0,1,18,0,8.753,8.753,0,0,1-5.82,8.175A16.82,16.82,0,0,0,4968,322.5h0Z" transform="translate(-4203 3422)"/></g></svg>