<svg xmlns="http://www.w3.org/2000/svg" width="41" height="26.5" viewBox="0 0 41 26.5"><defs><style>.a{fill:#e7e7e7;}</style></defs><path class="a" d="M13.995,0H9.474A57.218,57.218,0,0,0,3.952,7.334a33.253,33.253,0,0,0-2.788,5.453A19.736,19.736,0,0,0,.35,15.342,8.5,8.5,0,0,0,0,17.764,8.871,8.871,0,0,0,9,26.5a8.871,8.871,0,0,0,9-8.736,8.753,8.753,0,0,0-5.82-8.175A16.82,16.82,0,0,1,14,0h0Z" transform="translate(41 26.5) rotate(180)"/><path class="a" d="M13.995,0H9.474A57.218,57.218,0,0,0,3.952,7.334a33.253,33.253,0,0,0-2.788,5.453A19.736,19.736,0,0,0,.35,15.342,8.5,8.5,0,0,0,0,17.764,8.871,8.871,0,0,0,9,26.5a8.871,8.871,0,0,0,9-8.736,8.753,8.753,0,0,0-5.82-8.175A16.82,16.82,0,0,1,14,0h0Z" transform="translate(18 26.5) rotate(180)"/></svg>