<svg xmlns="http://www.w3.org/2000/svg" width="85.947" height="93.246" viewBox="0 0 85.947 93.246"><defs><style>.a{fill:#fff;}</style></defs><g transform="translate(0)"><path class="a" d="M78.2,51.743a22.966,22.966,0,0,0-22.94,22.94A22.651,22.651,0,0,0,60.17,88.825c.633.806,1.3,1.579,2,2.4l.039.045c2.156,2.5,4.385,5.088,5.217,8.135a14.234,14.234,0,0,1,.2,3.068v1.752a2.9,2.9,0,0,0,2.9,2.9H85.743a2.9,2.9,0,0,0,2.9-2.9v-1.773a12.365,12.365,0,0,1,.2-2.839c.837-3.026,3.307-5.932,5.506-8.518l.095-.112c.635-.746,1.234-1.45,1.78-2.144a22.65,22.65,0,0,0,4.912-14.152A22.965,22.965,0,0,0,78.2,51.743Zm13.462,33.5c-.478.608-1.042,1.271-1.639,1.972l-.117.137c-2.569,3.022-5.481,6.446-6.661,10.712a13.073,13.073,0,0,0-.4,3.253H73.436a13.787,13.787,0,0,0-.4-3.437c-1.181-4.322-4.087-7.7-6.423-10.406l-.039-.046c-.66-.765-1.283-1.489-1.838-2.193a16.9,16.9,0,0,1-3.663-10.552,17.131,17.131,0,1,1,34.262,0A16.9,16.9,0,0,1,91.665,85.242Z" transform="translate(-35.229 -31.709)"/><path class="a" d="M105.322,196.91h-15.2a2.9,2.9,0,1,0,0,5.808h15.205a2.9,2.9,0,1,0,0-5.808Z" transform="translate(-54.808 -118.383)"/><path class="a" d="M107.537,214.018h-7.6a2.9,2.9,0,1,0,0,5.808h7.6a2.9,2.9,0,1,0,0-5.808Z" transform="translate(-60.825 -126.58)"/><path class="a" d="M197.548,103.491H187.531a2.9,2.9,0,0,0,0,5.808h10.018a2.9,2.9,0,0,0,0-5.808Z" transform="translate(-114.505 -63.421)"/><path class="a" d="M19.344,106.395a2.9,2.9,0,0,0-2.9-2.9H6.422a2.9,2.9,0,0,0,0,5.808H16.441A2.9,2.9,0,0,0,19.344,106.395Z" transform="translate(-3.518 -63.421)"/><path class="a" d="M109.914,15.828a2.9,2.9,0,0,0,2.9-2.9V2.9a2.9,2.9,0,0,0-5.808,0V12.924A2.9,2.9,0,0,0,109.914,15.828Z" transform="translate(-66.94)"/><path class="a" d="M166.846,159.222a2.9,2.9,0,0,0-4.107,4.106l7.084,7.086a2.9,2.9,0,0,0,4.107-4.106Z" transform="translate(-100.571 -97.053)"/><path class="a" d="M41.764,42.351a2.9,2.9,0,1,0,4.107-4.106L38.79,31.161a2.9,2.9,0,0,0-4.107,4.106Z" transform="translate(-22.095 -18.575)"/><path class="a" d="M41.766,159.223l-7.084,7.086a2.9,2.9,0,0,0,4.107,4.106l7.084-7.086a2.9,2.9,0,0,0-4.107-4.106Z" transform="translate(-22.095 -97.054)"/><path class="a" d="M164.8,43.2a2.9,2.9,0,0,0,2.054-.851l7.082-7.083a2.9,2.9,0,1,0-4.107-4.106l-7.082,7.083A2.9,2.9,0,0,0,164.8,43.2Z" transform="translate(-100.574 -18.575)"/></g></svg>