<svg xmlns="http://www.w3.org/2000/svg" xmlns:xlink="http://www.w3.org/1999/xlink" width="16" height="16" viewBox="0 0 16 16"><defs><style>.a{fill:#fff;}.b{clip-path:url(#a);}</style><clipPath id="a"><rect class="a" width="16" height="16" transform="translate(33 120)"/></clipPath></defs><g class="b" transform="translate(-33 -120)"><g transform="translate(33 120)"><g transform="translate(0)"><path class="a" d="M15.959,13.71a.625.625,0,0,0-1.224.255.653.653,0,0,1-.132.547.635.635,0,0,1-.5.238H1.9a.635.635,0,0,1-.5-.238.653.653,0,0,1-.132-.547A6.905,6.905,0,0,1,7.834,8.5q.082,0,.166,0t.166,0a6.876,6.876,0,0,1,5.553,3.052.625.625,0,1,0,1.038-.7,8.13,8.13,0,0,0-4.213-3.2,4.25,4.25,0,1,0-5.087,0A8.129,8.129,0,0,0,.041,13.71,1.9,1.9,0,0,0,1.9,16H14.1a1.9,1.9,0,0,0,1.856-2.29ZM5,4.25a3,3,0,1,1,3.152,3h-.3A3,3,0,0,1,5,4.25Z" transform="translate(0)"/></g></g></g></svg>