<svg xmlns="http://www.w3.org/2000/svg" xmlns:xlink="http://www.w3.org/1999/xlink" width="28" height="27" viewBox="0 0 32 31"><defs><style>.a,.c{fill:#fff;stroke:#707070;}.b{clip-path:url(#a);}.c{stroke-width:0.078px;}</style><clipPath id="a"><rect class="a" width="32" height="31" transform="translate(-0.035)"/></clipPath></defs><g class="b" transform="translate(0.035)"><g transform="translate(0.113 -0.409)"><path class="c" d="M22.184,19.178a3.006,3.006,0,1,1-3.006-3.006A3.006,3.006,0,0,1,22.184,19.178Zm0,0" transform="translate(-3.473 -3.473)"/><path class="c" d="M25.008,12.66A2.986,2.986,0,0,0,23.3,10.948a4.989,4.989,0,0,0-1.674-.31c-.951-.043-1.236-.053-3.644-.053s-2.693.009-3.644.052a4.992,4.992,0,0,0-1.674.311,2.988,2.988,0,0,0-1.712,1.711,4.991,4.991,0,0,0-.31,1.675c-.043.951-.053,1.236-.053,3.644s.009,2.693.053,3.644a4.989,4.989,0,0,0,.31,1.674,2.986,2.986,0,0,0,1.711,1.711,4.983,4.983,0,0,0,1.675.311c.951.043,1.236.052,3.644.052s2.693-.009,3.644-.052a4.983,4.983,0,0,0,1.675-.311A2.986,2.986,0,0,0,25.008,23.3a4.994,4.994,0,0,0,.311-1.674c.043-.951.052-1.236.052-3.644s-.009-2.693-.052-3.644A4.983,4.983,0,0,0,25.008,12.66Zm-7.03,9.949a4.631,4.631,0,1,1,4.631-4.631A4.631,4.631,0,0,1,17.978,22.608Zm4.814-8.362a1.082,1.082,0,1,1,1.082-1.082A1.082,1.082,0,0,1,22.791,14.246Zm0,0" transform="translate(-2.273 -2.273)"/><path class="c" d="M15.7,0a15.7,15.7,0,1,0,15.7,15.7A15.706,15.706,0,0,0,15.7,0Zm8.963,19.422a6.616,6.616,0,0,1-.419,2.189,4.611,4.611,0,0,1-2.637,2.637,6.621,6.621,0,0,1-2.189.419c-.962.044-1.269.054-3.718.054s-2.756-.011-3.718-.054A6.621,6.621,0,0,1,9.8,24.249,4.611,4.611,0,0,1,7.16,21.611a6.615,6.615,0,0,1-.419-2.189c-.044-.962-.055-1.269-.055-3.718s.01-2.756.054-3.718A6.617,6.617,0,0,1,7.16,9.8,4.614,4.614,0,0,1,9.8,7.16a6.622,6.622,0,0,1,2.189-.419c.962-.044,1.269-.054,3.718-.054s2.756.011,3.718.055a6.624,6.624,0,0,1,2.189.419A4.612,4.612,0,0,1,24.249,9.8a6.615,6.615,0,0,1,.419,2.189c.044.962.054,1.269.054,3.718S24.712,18.461,24.668,19.422Zm0,0"/></g></g></svg>