<svg xmlns="http://www.w3.org/2000/svg" xmlns:xlink="http://www.w3.org/1999/xlink" width="100" height="100" viewBox="0 0 100 100"><defs><style>.a{clip-path:url(#a);}</style><clipPath id="a"><rect width="100" height="100" transform="translate(251 1109)"/></clipPath></defs><g class="a" transform="translate(-251 -1109)"><g transform="translate(251.001 1110.667)"><path d="M65.006,65a10,10,0,1,0,10,10A10,10,0,0,0,65.006,65Zm0,16.663a6.665,6.665,0,1,1,6.665-6.665A6.665,6.665,0,0,1,65.006,81.66Zm0,0"/><path d="M92,66.531a6.665,6.665,0,0,1-5.2-5.2A1.666,1.666,0,0,0,85.169,60H78.336V63.33h5.569a9.969,9.969,0,0,0,6.1,6.1V80.564a9.967,9.967,0,0,0-6.1,6.1H78.336v3.333h6.832A1.666,1.666,0,0,0,86.8,88.659a6.665,6.665,0,0,1,5.2-5.2,1.665,1.665,0,0,0,1.333-1.631V68.162A1.666,1.666,0,0,0,92,66.531Zm0,0"/><path d="M43.212,61.331a6.666,6.666,0,0,1-5.2,5.2,1.668,1.668,0,0,0-1.334,1.631V81.827a1.667,1.667,0,0,0,1.334,1.631,6.666,6.666,0,0,1,5.2,5.2,1.666,1.666,0,0,0,1.631,1.333h6.831V86.659H46.106a9.969,9.969,0,0,0-6.1-6.1V69.426a9.97,9.97,0,0,0,6.1-6.1h5.569V60H44.843a1.666,1.666,0,0,0-1.631,1.334Zm0,0"/><path d="M95,53.332H73.6A38.3,38.3,0,0,0,38.344.009q-1.753,0-3.486.167A39.008,39.008,0,0,0,12.981,9.591,38.313,38.313,0,0,0,30.012,75.737V91.658a5,5,0,0,0,5,5H95a5,5,0,0,0,5-5V58.331a5,5,0,0,0-5-5Zm-64.988,5V68.463c-4.847-5.975-8.023-16.685-8.3-28.461H36.678V53.332H35.011a5,5,0,0,0-5,5Zm-12.8-47.873c.363-.275.733-.538,1.1-.8.465-.325.937-.64,1.414-.94.383-.242.772-.473,1.167-.7q.738-.421,1.5-.808c.4-.2.8-.405,1.205-.593.518-.242,1.045-.462,1.573-.677.408-.167.815-.333,1.229-.483.549-.2,1.107-.375,1.666-.547l.5-.148a31.452,31.452,0,0,0-6,9.787,34.908,34.908,0,0,1-5.848-3.691c.156-.132.318-.273.49-.4Zm33.073-5c.417.152.833.32,1.24.488.523.212,1.045.432,1.558.666.412.192.817.4,1.221.6.5.255.989.518,1.474.8q.6.343,1.181.71.708.445,1.395.927c.378.264.753.53,1.121.81.167.129.334.269.5.4a34.885,34.885,0,0,1-5.849,3.691,31.442,31.442,0,0,0-6-9.787c.167.049.334.1.5.15.557.173,1.111.347,1.657.545ZM40.01,21.6a38.339,38.339,0,0,0,12.153-2.511,63.151,63.151,0,0,1,2.8,17.583H40.01Zm0-3.333V3.525c4.356.958,8.272,5.624,11.012,12.41A34.962,34.962,0,0,1,40.01,18.269ZM36.678,3.525V18.269a34.96,34.96,0,0,1-11.011-2.333c2.74-6.787,6.656-11.453,11.011-12.411Zm0,18.072V36.669H21.723a63.181,63.181,0,0,1,2.8-17.583A38.343,38.343,0,0,0,36.678,21.6ZM40.01,40H54.958a66.3,66.3,0,0,1-1.617,13.331H40.01Zm18.282,0h15a34.41,34.41,0,0,1-3.333,13.331H56.748A69.048,69.048,0,0,0,58.292,40Zm15-3.333H58.319a65.94,65.94,0,0,0-3.033-18.951,38.247,38.247,0,0,0,7.237-4.675A35.1,35.1,0,0,1,73.292,36.669ZM14.165,13.044A38.3,38.3,0,0,0,21.4,17.717,65.967,65.967,0,0,0,18.37,36.669H3.4A35.094,35.094,0,0,1,14.165,13.044ZM3.4,40H18.379c.3,13.594,4.208,25.63,10.287,31.961A34.94,34.94,0,0,1,3.4,40ZM96.666,91.658A1.666,1.666,0,0,1,95,93.325H35.011a1.666,1.666,0,0,1-1.666-1.666V58.331a1.666,1.666,0,0,1,1.666-1.666H95a1.666,1.666,0,0,1,1.666,1.666Zm0,0"/></g></g></svg>