<svg xmlns="http://www.w3.org/2000/svg" xmlns:xlink="http://www.w3.org/1999/xlink" width="23" height="23" viewBox="0 0 23 23"><defs><style>.a{fill:#fff;stroke:#707070;}.b{opacity:0.4;clip-path:url(#a);}</style><clipPath id="a"><rect class="a" width="23" height="23" transform="translate(0.439)"/></clipPath></defs><g class="b" transform="translate(-0.439)"><g transform="translate(0.08 4.775)"><path d="M22.835,9.746c-.18-.262-4.518-6.413-11.375-6.413C5.577,3.333.334,9.449.113,9.71a.477.477,0,0,0,0,.617C.334,10.588,5.577,16.7,11.46,16.7s11.127-6.116,11.347-6.376A.479.479,0,0,0,22.835,9.746ZM11.46,13.838a3.82,3.82,0,1,1,3.82-3.82A3.824,3.824,0,0,1,11.46,13.838Z" transform="translate(0 -3.333)"/></g></g></svg>