<svg xmlns="http://www.w3.org/2000/svg" xmlns:xlink="http://www.w3.org/1999/xlink" width="100" height="100" viewBox="0 0 100 100"><defs><style>.a{clip-path:url(#a);}</style><clipPath id="a"><rect width="100" height="100" transform="translate(251 1109)"/></clipPath></defs><g class="a" transform="translate(-251 -1109)"><g transform="translate(251 1109)"><path d="M50,7.814a1.951,1.951,0,1,0,1.951,1.951A1.947,1.947,0,0,0,50,7.814Z"/><path d="M89.063,11.719A9.777,9.777,0,0,1,79.3,1.953,1.953,1.953,0,0,0,77.344,0H22.656A1.953,1.953,0,0,0,20.7,1.953a9.777,9.777,0,0,1-9.766,9.766,1.953,1.953,0,0,0-1.953,1.953V45.545A56.732,56.732,0,0,0,49.439,99.918a1.953,1.953,0,0,0,1.122,0A56.738,56.738,0,0,0,91.016,45.545V13.672A1.953,1.953,0,0,0,89.063,11.719ZM87.109,45.545A52.526,52.526,0,0,1,50,96a52.811,52.811,0,0,1-37.109-50.46V15.486A13.7,13.7,0,0,0,24.47,3.906H75.53a13.7,13.7,0,0,0,11.58,11.58Z"/><path d="M82.034,18.064a17.593,17.593,0,0,1-9.082-9.082,1.953,1.953,0,0,0-1.789-1.17H57.809a1.953,1.953,0,1,0,0,3.906H69.927a21.471,21.471,0,0,0,9.37,9.37V45.545A44.492,44.492,0,0,1,50,87.753,44.492,44.492,0,0,1,20.7,45.545V21.088a21.472,21.472,0,0,0,9.37-9.37H42.191a1.953,1.953,0,0,0,0-3.906H28.838a1.953,1.953,0,0,0-1.789,1.17,17.593,17.593,0,0,1-9.082,9.082,1.954,1.954,0,0,0-1.17,1.789V45.545A48.621,48.621,0,0,0,49.348,91.671a1.953,1.953,0,0,0,1.3,0A48.621,48.621,0,0,0,83.2,45.545V19.854A1.953,1.953,0,0,0,82.034,18.064Z"/><path d="M50,28.516A17.578,17.578,0,1,0,67.578,46.094,17.6,17.6,0,0,0,50,28.516Zm0,31.25A13.672,13.672,0,1,1,63.672,46.094,13.687,13.687,0,0,1,50,59.766Z"/><path d="M59.194,40.806a1.954,1.954,0,0,0-2.762,0l-8.384,8.385-2.525-2.525a1.953,1.953,0,0,0-2.762,2.762l3.906,3.906a1.954,1.954,0,0,0,2.762,0l9.766-9.766A1.953,1.953,0,0,0,59.194,40.806Z"/></g></g></svg>