<svg xmlns="http://www.w3.org/2000/svg" xmlns:xlink="http://www.w3.org/1999/xlink" width="28" height="27" viewBox="0 0 31 31"><defs><style>.a{fill:#fff;}.b{clip-path:url(#a);}</style><clipPath id="a"><rect class="a" width="32" height="31"/></clipPath></defs><g class="b"><g transform="translate(0 -0.409)"><path class="a" d="M23.117,39.74q-.2.032-.394.059Q22.921,39.772,23.117,39.74Zm0,0" transform="translate(-4.881 -8.535)"/><path class="a" d="M23.574,39.671l-.188.033Zm0,0" transform="translate(-5.023 -8.521)"/><path class="a" d="M22.15,39.87q-.23.026-.462.046Q21.92,39.9,22.15,39.87Zm0,0" transform="translate(-4.658 -8.563)"/><path class="a" d="M22.6,39.823l-.221.028Zm0,0" transform="translate(-4.807 -8.553)"/><path class="a" d="M24.124,39.563l-.166.035Zm0,0" transform="translate(-5.146 -8.498)"/><path class="a" d="M25.484,39.228l-.134.037Zm0,0" transform="translate(-5.445 -8.425)"/><path class="a" d="M25.072,39.339l-.146.038Zm0,0" transform="translate(-5.354 -8.449)"/><path class="a" d="M24.535,39.473l-.155.035Zm0,0" transform="translate(-5.236 -8.478)"/><path class="a" d="M21.614,39.929l-.248.019Zm0,0" transform="translate(-4.589 -8.576)"/><path class="a" d="M31.409,15.7a15.7,15.7,0,1,0-15.7,15.7c.092,0,.184,0,.276,0V19.18H12.606V15.248H15.98V12.354c0-3.356,2.049-5.182,5.042-5.182a27.774,27.774,0,0,1,3.025.155v3.507H21.983c-1.629,0-1.944.774-1.944,1.91v2.5h3.894l-.508,3.932H20.039V30.8A15.713,15.713,0,0,0,31.409,15.7Zm0,0"/><path class="a" d="M21.187,39.955q-.245.016-.492.024Q20.942,39.972,21.187,39.955Zm0,0" transform="translate(-4.445 -8.582)"/><path class="a" d="M20.613,39.987l-.261.006Zm0,0" transform="translate(-4.371 -8.589)"/></g></g></svg>