<svg xmlns="http://www.w3.org/2000/svg" xmlns:xlink="http://www.w3.org/1999/xlink" width="100" height="100" viewBox="0 0 100 100"><defs><style>.a{clip-path:url(#a);}</style><clipPath id="a"><rect width="100" height="100" transform="translate(251 1109)"/></clipPath></defs><g class="a" transform="translate(-251 -1109)"><g transform="translate(251.195 1109.195)"><path d="M53.121,65.633H79.78a1.574,1.574,0,0,0,1.666-1.666v-15a1.574,1.574,0,0,0-1.666-1.666H53.121a1.574,1.574,0,0,0-1.666,1.666v15A1.574,1.574,0,0,0,53.121,65.633Zm1.666-15H78.114V62.3H54.788Z"/><path d="M8.136,43.973H21.465a1.666,1.666,0,0,0,0-3.332H8.136a1.666,1.666,0,0,0,0,3.332Z"/><path d="M28.129,43.973H41.459a1.666,1.666,0,0,0,0-3.332H28.129a1.666,1.666,0,1,0,0,3.332Z"/><path d="M8.136,50.638H29.8a1.666,1.666,0,1,0,0-3.332H8.136a1.666,1.666,0,0,0,0,3.332Z"/><path d="M41.458,47.306h-5a1.666,1.666,0,0,0,0,3.332h5a1.666,1.666,0,1,0,0-3.332Z"/><path d="M98.274,26.645a6.208,6.208,0,0,0-4.5-2.5l-4-.485V15.649a6.684,6.684,0,0,0-6.665-6.665H6.469A6.684,6.684,0,0,0-.2,15.649V68.966a6.69,6.69,0,0,0,4.774,6.388,6.484,6.484,0,0,0,5.889,6.608l76.976,8.664h.666a6.671,6.671,0,0,0,6.665-5.665l5-53.483A6.476,6.476,0,0,0,98.274,26.645Zm-95.137-6H86.444v10H3.137Zm3.332-8.331H83.112a3.342,3.342,0,0,1,3.332,3.332v1.666H3.137V15.649A3.342,3.342,0,0,1,6.469,12.316ZM3.137,68.965V33.976H86.444V68.965A3.342,3.342,0,0,1,83.112,72.3H6.469A3.342,3.342,0,0,1,3.137,68.965Zm93.3-38.155-5,53.483a3.361,3.361,0,0,1-3.665,3L10.968,78.629a3.368,3.368,0,0,1-3-3H83.112a6.684,6.684,0,0,0,6.665-6.665V26.812l3.832.333a2.848,2.848,0,0,1,2.166,1.166A3.374,3.374,0,0,1,96.441,30.811Z"/></g></g></svg>