<svg xmlns="http://www.w3.org/2000/svg" xmlns:xlink="http://www.w3.org/1999/xlink" width="100" height="100" viewBox="0 0 100 100"><defs><style>.a{clip-path:url(#a);}</style><clipPath id="a"><rect width="100" height="100" transform="translate(251 1109)"/></clipPath></defs><g class="a" transform="translate(-251 -1109)"><g transform="translate(251 1109)"><path d="M86.141,41.337h-.248V35.272a35.272,35.272,0,0,0-70.545,0v6.064H13.863c-5.446,0-9.653,4.827-9.653,10.4V67.2a9.777,9.777,0,0,0,9.526,10.022l.128,0h9.158a2.351,2.351,0,0,0,2.238-2.459q0-.07-.011-.14V44.307c0-1.485-.866-2.97-2.228-2.97H20.3V35.272a30.322,30.322,0,1,1,60.644,0v6.064H78.22c-1.361,0-2.228,1.485-2.228,2.97V74.629a2.351,2.351,0,0,0,2.088,2.588q.07.007.14.011h2.846l-.248.371A19.554,19.554,0,0,1,65.1,85.4a12.253,12.253,0,0,0-24.258,2.352A12.376,12.376,0,0,0,53.219,100a12.747,12.747,0,0,0,8.911-3.837,10.892,10.892,0,0,0,2.97-5.941,24.5,24.5,0,0,0,19.678-9.777L87.13,76.98c5.322-.371,8.663-3.713,8.663-8.54V52.97C95.794,47.649,91.834,41.337,86.141,41.337ZM20.3,72.277H13.863a4.827,4.827,0,0,1-4.708-4.943c0-.044,0-.088,0-.132V51.733c0-2.846,1.98-5.446,4.7-5.446H20.3ZM58.541,92.7A7.3,7.3,0,0,1,53.22,95.05a7.55,7.55,0,0,1-7.426-7.3,7.3,7.3,0,0,1,14.6-.006v.006A6.56,6.56,0,0,1,58.541,92.7Zm32.3-24.258c0,3.342-3.218,3.837-4.7,3.837h-5.2V46.287h5.2c2.723,0,4.7,3.837,4.7,6.683Z"/></g></g></svg>