<svg xmlns="http://www.w3.org/2000/svg" xmlns:xlink="http://www.w3.org/1999/xlink" width="100" height="100" viewBox="0 0 100 100"><defs><style>.a{clip-path:url(#a);}</style><clipPath id="a"><rect width="100" height="100" transform="translate(251 1109)"/></clipPath></defs><g class="a" transform="translate(-251 -1109)"><g transform="translate(251 1109)"><path d="M34.375,51.953a1.953,1.953,0,1,0,1.953,1.953A1.954,1.954,0,0,0,34.375,51.953Z"/><path d="M38.281,88.281H26.563a1.953,1.953,0,0,0,0,3.906H38.281a1.953,1.953,0,0,0,0-3.906Z"/><path d="M94.141,24.609H64.258V9.766A9.777,9.777,0,0,0,54.492,0H9.766A9.777,9.777,0,0,0,0,9.766V90.234A9.777,9.777,0,0,0,9.766,100H54.492a9.777,9.777,0,0,0,9.766-9.766V75.391H94.141A5.866,5.866,0,0,0,100,69.531V30.469A5.866,5.866,0,0,0,94.141,24.609ZM60.352,90.234a5.866,5.866,0,0,1-5.859,5.859H9.766a5.866,5.866,0,0,1-5.859-5.859V9.766A5.866,5.866,0,0,1,9.766,3.906H54.492a5.866,5.866,0,0,1,5.859,5.859V24.609H56.445V14.258A1.953,1.953,0,0,0,54.492,12.3H9.766a1.953,1.953,0,0,0-1.953,1.953V81.836a1.953,1.953,0,0,0,1.953,1.953H54.492a1.953,1.953,0,0,0,1.953-1.953V75.391h3.906ZM30.469,75.391h22.07v4.492H11.719V16.211h40.82v8.4H30.469a5.866,5.866,0,0,0-5.859,5.859V69.531A5.866,5.866,0,0,0,30.469,75.391Zm65.625-5.859a1.955,1.955,0,0,1-1.953,1.953H30.469a1.955,1.955,0,0,1-1.953-1.953V44.141H96.094Zm0-29.3H28.516V36.328H96.094Zm0-7.812H28.516V30.469a1.955,1.955,0,0,1,1.953-1.953H94.141a1.955,1.955,0,0,1,1.953,1.953Z"/><path d="M83.789,50a7.794,7.794,0,0,0-5.859,2.653,7.813,7.813,0,1,0,0,10.318A7.81,7.81,0,1,0,83.789,50ZM72.07,61.719a3.906,3.906,0,1,1,3.906-3.906A3.911,3.911,0,0,1,72.07,61.719Zm11.719,0A3.906,3.906,0,1,1,87.7,57.813,3.911,3.911,0,0,1,83.789,61.719Z"/><path d="M58.4,51.953H42.188a1.953,1.953,0,0,0,0,3.906H58.4a1.953,1.953,0,0,0,0-3.906Z"/><path d="M58.4,59.766H34.375a1.953,1.953,0,0,0,0,3.906H58.4a1.953,1.953,0,0,0,0-3.906Z"/></g></g></svg>