<svg xmlns="http://www.w3.org/2000/svg" xmlns:xlink="http://www.w3.org/1999/xlink" width="28" height="27" viewBox="0 0 32 31"><defs><style>.a,.c{fill:#fff;stroke:#707070;}.b{clip-path:url(#a);}.c{stroke-width:0.078px;}</style><clipPath id="a"><rect class="a" width="32" height="31" transform="translate(-0.07)"/></clipPath></defs><g class="b" transform="translate(0.07)"><path class="c" d="M15.7,0a15.7,15.7,0,1,0,15.7,15.7A15.706,15.706,0,0,0,15.7,0ZM17.73,24.573c-3.865.067-5.328-2.753-5.328-4.737v-5.8h-1.8V11.748A5.428,5.428,0,0,0,14.1,6.967a.14.14,0,0,1,.128-.133h2.6v4.519h3.55V14.04H16.81v5.522a1.556,1.556,0,0,0,1.707,1.748A4.174,4.174,0,0,0,19.949,21l.853,2.529a4.722,4.722,0,0,1-3.072,1.039Zm0,0" transform="translate(0.226 -0.409)"/></g></svg>
