<svg xmlns="http://www.w3.org/2000/svg" width="47.783" height="80.234" viewBox="0 0 47.783 80.234"><defs><style>.a{fill:#fff;}</style></defs><g transform="translate(0)"><path class="a" d="M143.306,0H111.557a8.026,8.026,0,0,0-8.017,8.017v64.2a8.026,8.026,0,0,0,8.017,8.017h31.749a8.026,8.026,0,0,0,8.017-8.017V8.017A8.026,8.026,0,0,0,143.306,0Zm3.316,72.217a3.319,3.319,0,0,1-3.316,3.316H111.557a3.319,3.319,0,0,1-3.316-3.316v-6.54h38.381Zm0-11.242H108.241V15.2h38.381Zm0-50.475H108.241V8.017A3.32,3.32,0,0,1,111.557,4.7h31.749a3.32,3.32,0,0,1,3.316,3.316Z" transform="translate(-103.54)"/><g transform="translate(20.832 67.332)"><ellipse class="a" cx="3.059" cy="3.059" rx="3.059" ry="3.059"/></g></g></svg>